<svg width="232" height="45" viewBox="0 0 232 45" fill="none" xmlns="http://www.w3.org/2000/svg">
<path d="M11.4778 36.216C9.60578 36.216 7.80578 35.916 6.07778 35.316C4.37378 34.716 3.05378 33.924 2.11778 32.94L3.16178 30.888C4.07378 31.8 5.28578 32.544 6.79778 33.12C8.30978 33.672 9.86978 33.948 11.4778 33.948C13.7338 33.948 15.4258 33.54 16.5538 32.724C17.6818 31.884 18.2458 30.804 18.2458 29.484C18.2458 28.476 17.9338 27.672 17.3098 27.072C16.7098 26.472 15.9658 26.016 15.0778 25.704C14.1898 25.368 12.9538 25.008 11.3698 24.624C9.47378 24.144 7.96178 23.688 6.83378 23.256C5.70578 22.8 4.73378 22.116 3.91778 21.204C3.12578 20.292 2.72978 19.056 2.72978 17.496C2.72978 16.224 3.06578 15.072 3.73778 14.04C4.40978 12.984 5.44178 12.144 6.83378 11.52C8.22578 10.896 9.95378 10.584 12.0178 10.584C13.4578 10.584 14.8618 10.788 16.2298 11.196C17.6218 11.58 18.8218 12.12 19.8298 12.816L18.9298 14.94C17.8738 14.244 16.7458 13.728 15.5458 13.392C14.3458 13.032 13.1698 12.852 12.0178 12.852C9.80978 12.852 8.14178 13.284 7.01378 14.148C5.90978 14.988 5.35778 16.08 5.35778 17.424C5.35778 18.432 5.65778 19.248 6.25778 19.872C6.88178 20.472 7.64978 20.94 8.56178 21.276C9.49778 21.588 10.7458 21.936 12.3058 22.32C14.1538 22.776 15.6418 23.232 16.7698 23.688C17.9218 24.12 18.8938 24.792 19.6858 25.704C20.4778 26.592 20.8738 27.804 20.8738 29.34C20.8738 30.612 20.5258 31.776 19.8298 32.832C19.1578 33.864 18.1138 34.692 16.6978 35.316C15.2818 35.916 13.5418 36.216 11.4778 36.216Z" fill="#626263"/>
<path d="M55.1105 35.216C52.6145 35.216 50.3585 34.664 48.3425 33.56C46.3505 32.456 44.7785 30.932 43.6265 28.988C42.4985 27.02 41.9345 24.824 41.9345 22.4C41.9345 19.976 42.4985 17.792 43.6265 15.848C44.7785 13.88 46.3625 12.344 48.3785 11.24C50.3945 10.136 52.6505 9.584 55.1465 9.584C57.0185 9.584 58.7465 9.896 60.3305 10.52C61.9145 11.144 63.2585 12.056 64.3625 13.256L62.6705 14.948C60.7025 12.956 58.2185 11.96 55.2185 11.96C53.2265 11.96 51.4145 12.416 49.7825 13.328C48.1505 14.24 46.8665 15.488 45.9305 17.072C45.0185 18.656 44.5625 20.432 44.5625 22.4C44.5625 24.368 45.0185 26.144 45.9305 27.728C46.8665 29.312 48.1505 30.56 49.7825 31.472C51.4145 32.384 53.2265 32.84 55.2185 32.84C58.2425 32.84 60.7265 31.832 62.6705 29.816L64.3625 31.508C63.2585 32.708 61.9025 33.632 60.2945 34.28C58.7105 34.904 56.9825 35.216 55.1105 35.216Z" fill="#626263"/>
<path d="M108.521 10.8V36H105.893V24.372H90.1254V36H87.4614V10.8H90.1254V22.032H105.893V10.8H108.521Z" fill="#626263"/>
<path d="M145.52 36.216C143.024 36.216 140.756 35.664 138.716 34.56C136.7 33.432 135.116 31.896 133.964 29.952C132.836 28.008 132.272 25.824 132.272 23.4C132.272 20.976 132.836 18.792 133.964 16.848C135.116 14.904 136.7 13.38 138.716 12.276C140.756 11.148 143.024 10.584 145.52 10.584C148.016 10.584 150.26 11.136 152.252 12.24C154.268 13.344 155.852 14.88 157.004 16.848C158.156 18.792 158.732 20.976 158.732 23.4C158.732 25.824 158.156 28.02 157.004 29.988C155.852 31.932 154.268 33.456 152.252 34.56C150.26 35.664 148.016 36.216 145.52 36.216ZM145.52 33.84C147.512 33.84 149.312 33.396 150.92 32.508C152.528 31.596 153.788 30.348 154.7 28.764C155.612 27.156 156.068 25.368 156.068 23.4C156.068 21.432 155.612 19.656 154.7 18.072C153.788 16.464 152.528 15.216 150.92 14.328C149.312 13.416 147.512 12.96 145.52 12.96C143.528 12.96 141.716 13.416 140.084 14.328C138.476 15.216 137.204 16.464 136.268 18.072C135.356 19.656 134.9 21.432 134.9 23.4C134.9 25.368 135.356 27.156 136.268 28.764C137.204 30.348 138.476 31.596 140.084 32.508C141.716 33.396 143.528 33.84 145.52 33.84Z" fill="#626263"/>
<path d="M191.616 10.8C194.832 10.8 197.352 11.568 199.176 13.104C201 14.64 201.912 16.752 201.912 19.44C201.912 22.128 201 24.24 199.176 25.776C197.352 27.288 194.832 28.044 191.616 28.044H184.848V36H182.184V10.8H191.616ZM191.544 25.704C194.04 25.704 195.948 25.164 197.268 24.084C198.588 22.98 199.248 21.432 199.248 19.44C199.248 17.4 198.588 15.84 197.268 14.76C195.948 13.656 194.04 13.104 191.544 13.104H184.848V25.704H191.544Z" fill="#626263"/>
<path d="M225.172 9.8H227.836V35H225.172V9.8Z" fill="#626263"/>
</svg>
